<?xml version="1.0" encoding="utf-8"?>
<!-- Generator: Adobe Illustrator 16.0.0, SVG Export Plug-In . SVG Version: 6.00 Build 0)  -->
<!DOCTYPE svg PUBLIC "-//W3C//DTD SVG 1.1//EN" "http://www.w3.org/Graphics/SVG/1.1/DTD/svg11.dtd">
<svg version="1.1" id="Layer_1" xmlns="http://www.w3.org/2000/svg" xmlns:xlink="http://www.w3.org/1999/xlink" x="0px" y="0px"
	 width="26px" height="26px" viewBox="0 0 26 26" enable-background="new 0 0 26 26" xml:space="preserve">
<g>
	<path fill="#FFFFFF" d="M10.313,9.021c-0.442,0-0.742,0.043-0.898,0.087v2.841c0.186,0.043,0.413,0.057,0.727,0.057
		c1.157,0,1.871-0.585,1.871-1.571C12.012,9.551,11.398,9.021,10.313,9.021z"/>
	<path fill="#FFFFFF" d="M20.788,4.041H5.458c-0.591,0-1.07,0.478-1.07,1.068v15.329c0,0.59,0.479,1.069,1.07,1.069h15.33
		c0.59,0,1.069-0.479,1.069-1.069V5.109C21.857,4.519,21.378,4.041,20.788,4.041z M13.282,12.663
		c-0.741,0.7-1.842,1.014-3.125,1.014c-0.287,0-0.543-0.014-0.743-0.043v3.442H7.257V7.58c0.671-0.113,1.613-0.199,2.942-0.199
		c1.341,0,2.299,0.256,2.94,0.771c0.617,0.486,1.03,1.286,1.03,2.228S13.854,12.12,13.282,12.663z M16.533,17.218
		c-0.916,0-1.729-0.198-2.258-0.485l0.385-1.556c0.4,0.241,1.229,0.527,1.873,0.527c0.654,0,0.927-0.228,0.927-0.586
		c0-0.356-0.214-0.527-1.026-0.8c-1.442-0.484-2-1.271-1.986-2.098c0-1.298,1.113-2.286,2.842-2.286c0.814,0,1.542,0.187,1.97,0.4
		l-0.385,1.5c-0.313-0.172-0.913-0.399-1.515-0.399c-0.526,0-0.825,0.214-0.825,0.571c0,0.328,0.269,0.499,1.126,0.8
		c1.328,0.456,1.886,1.127,1.898,2.154C19.559,16.261,18.529,17.218,16.533,17.218z"/>
</g>
</svg>
