<svg xmlns="http://www.w3.org/2000/svg" width="1600" height="775"><style>.style0{stroke:	#ffffdf;fill:	#ffffdf;}.style1{stroke:	#ffffec;fill:	#ffffec;}.style10{stroke:	#ffeebe;fill:	#ffeebe;}.style100{stroke:	#ae5015;fill:	#ae5015;}.style101{stroke:	#a35c1a;fill:	#a35c1a;}.style102{stroke:	#933715;fill:	#933715;}.style103{stroke:	#fbb182;fill:	#fbb182;}.style104{stroke:	#e9a37c;fill:	#e9a37c;}.style105{stroke:	#f4a773;fill:	#f4a773;}.style106{stroke:	#db9a70;fill:	#db9a70;}.style107{stroke:	#e39b69;fill:	#e39b69;}.style108{stroke:	#d19164;fill:	#d19164;}.style109{stroke:	#d38953;fill:	#d38953;}.style11{stroke:	#ffeaba;fill:	#ffeaba;}.style110{stroke:	#ea8f47;fill:	#ea8f47;}.style111{stroke:	#e68438;fill:	#e68438;}.style112{stroke:	#f98c35;fill:	#f98c35;}.style113{stroke:	#f47e2c;fill:	#f47e2c;}.style114{stroke:	#bf5f27;fill:	#bf5f27;}.style115{stroke:	#ba5422;fill:	#ba5422;}.style116{stroke:	#e9641d;fill:	#e9641d;}.style117{stroke:	#d7581b;fill:	#d7581b;}.style118{stroke:	#c84d18;fill:	#c84d18;}.style119{stroke:	#e15716;fill:	#e15716;}.style12{stroke:	#ffe1a6;fill:	#ffe1a6;}.style120{stroke:	#cd4a13;fill:	#cd4a13;}.style121{stroke:	#a53713;fill:	#a53713;}.style122{stroke:	#9b3214;fill:	#9b3214;}.style123{stroke:	#aa3914;fill:	#aa3914;}.style124{stroke:	#a63714;fill:	#a63714;}.style125{stroke:	#822615;fill:	#822615;}.style126{stroke:	#a48381;fill:	#a48381;}.style127{stroke:	#be8e7c;fill:	#be8e7c;}.style128{stroke:	#bd8d74;fill:	#bd8d74;}.style129{stroke:	#a27e6f;fill:	#a27e6f;}.style13{stroke:	#ffdba1;fill:	#ffdba1;}.style130{stroke:	#ae8066;fill:	#ae8066;}.style131{stroke:	#957562;fill:	#957562;}.style132{stroke:	#9f7258;fill:	#9f7258;}.style133{stroke:	#bb7848;fill:	#bb7848;}.style134{stroke:	#c47539;fill:	#c47539;}.style135{stroke:	#a36135;fill:	#a36135;}.style136{stroke:	#96532c;fill:	#96532c;}.style137{stroke:	#a9481f;fill:	#a9481f;}.style138{stroke:	#863d1e;fill:	#863d1e;}.style139{stroke:	#823219;fill:	#823219;}.style14{stroke:	#ffd098;fill:	#ffd098;}.style140{stroke:	#963316;fill:	#963316;}.style141{stroke:	#8a2a13;fill:	#8a2a13;}.style142{stroke:	#6b1b13;fill:	#6b1b13;}.style143{stroke:	#651714;fill:	#651714;}.style144{stroke:	#7a2214;fill:	#7a2214;}.style145{stroke:	#661815;fill:	#661815;}.style146{stroke:	#400715;fill:	#400715;}.style147{stroke:	#7f7561;fill:	#7f7561;}.style148{stroke:	#897d77;fill:	#897d77;}.style149{stroke:	#7f6e52;fill:	#7f6e52;}.style15{stroke:	#fdc792;fill:	#fdc792;}.style150{stroke:	#866744;fill:	#866744;}.style151{stroke:	#7d4723;fill:	#7d4723;}.style152{stroke:	#5a2013;fill:	#5a2013;}.style153{stroke:	#461514;fill:	#461514;}.style154{stroke:	#400e14;fill:	#400e14;}.style155{fill:	#F00;}.style156{opacity:	0.2;}.style16{stroke:	#f6b98b;fill:	#f6b98b;}.style17{stroke:	#e8a982;fill:	#e8a982;}.style18{stroke:	#fecb8e;fill:	#fecb8e;}.style19{stroke:	#fac28f;fill:	#fac28f;}.style2{stroke:	#fffff0;fill:	#fffff0;}.style20{stroke:	#f8bc8b;fill:	#f8bc8b;}.style21{stroke:	#f1b387;fill:	#f1b387;}.style22{stroke:	#ebac84;fill:	#ebac84;}.style23{stroke:	#e0a381;fill:	#e0a381;}.style24{stroke:	#cc9982;fill:	#cc9982;}.style25{stroke:	#daa07b;fill:	#daa07b;}.style26{stroke:	#c79777;fill:	#c79777;}.style27{stroke:	#bd9282;fill:	#bd9282;}.style28{stroke:	#a58783;fill:	#a58783;}.style29{stroke:	#9e8379;fill:	#9e8379;}.style3{stroke:	#fffeea;fill:	#fffeea;}.style30{stroke:	#948076;fill:	#948076;}.style31{stroke:	#928062;fill:	#928062;}.style32{stroke:	#936524;fill:	#936524;}.style33{stroke:	#fff8b8;fill:	#fff8b8;}.style34{stroke:	#fffcc1;fill:	#fffcc1;}.style35{stroke:	#ffffd6;fill:	#ffffd6;}.style36{stroke:	#fffdce;fill:	#fffdce;}.style37{stroke:	#fffab2;fill:	#fffab2;}.style38{stroke:	#fff5a5;fill:	#fff5a5;}.style39{stroke:	#fff5b3;fill:	#fff5b3;}.style4{stroke:	#fffde0;fill:	#fffde0;}.style40{stroke:	#ffefaf;fill:	#ffefaf;}.style41{stroke:	#ffeb95;fill:	#ffeb95;}.style42{stroke:	#ffe281;fill:	#ffe281;}.style43{stroke:	#ffda8c;fill:	#ffda8c;}.style44{stroke:	#ffce80;fill:	#ffce80;}.style45{stroke:	#feca6b;fill:	#feca6b;}.style46{stroke:	#fac26a;fill:	#fac26a;}.style47{stroke:	#f8bd7c;fill:	#f8bd7c;}.style48{stroke:	#f1b366;fill:	#f1b366;}.style49{stroke:	#ecad73;fill:	#ecad73;}.style5{stroke:	#fffce0;fill:	#fffce0;}.style50{stroke:	#e0a368;fill:	#e0a368;}.style51{stroke:	#d79f58;fill:	#d79f58;}.style52{stroke:	#c49665;fill:	#c49665;}.style53{stroke:	#ba905b;fill:	#ba905b;}.style54{stroke:	#a88865;fill:	#a88865;}.style55{stroke:	#9e835f;fill:	#9e835f;}.style56{stroke:	#ffdd96;fill:	#ffdd96;}.style57{stroke:	#ffd48a;fill:	#ffd48a;}.style58{stroke:	#ffec98;fill:	#ffec98;}.style59{stroke:	#ffec8f;fill:	#ffec8f;}.style6{stroke:	#fff7cf;fill:	#fff7cf;}.style60{stroke:	#ffd477;fill:	#ffd477;}.style61{stroke:	#ffe37b;fill:	#ffe37b;}.style62{stroke:	#ffd368;fill:	#ffd368;}.style63{stroke:	#ffdd69;fill:	#ffdd69;}.style64{stroke:	#ffc850;fill:	#ffc850;}.style65{stroke:	#ffd050;fill:	#ffd050;}.style66{stroke:	#ffba3d;fill:	#ffba3d;}.style67{stroke:	#ffbc3e;fill:	#ffbc3e;}.style68{stroke:	#fda82f;fill:	#fda82f;}.style69{stroke:	#fab63e;fill:	#fab63e;}.style7{stroke:	#fff4cf;fill:	#fff4cf;}.style70{stroke:	#f7aa36;fill:	#f7aa36;}.style71{stroke:	#f1aa41;fill:	#f1aa41;}.style72{stroke:	#ec9327;fill:	#ec9327;}.style73{stroke:	#dd8925;fill:	#dd8925;}.style74{stroke:	#d3953b;fill:	#d3953b;}.style75{stroke:	#bf8b3b;fill:	#bf8b3b;}.style76{stroke:	#b87e2c;fill:	#b87e2c;}.style77{stroke:	#a8772d;fill:	#a8772d;}.style78{stroke:	#9c7b41;fill:	#9c7b41;}.style79{stroke:	#e5a38a;fill:	#e5a38a;}.style8{stroke:	#fff2c9;fill:	#fff2c9;}.style80{stroke:	#febe8b;fill:	#febe8b;}.style81{stroke:	#ffc27e;fill:	#ffc27e;}.style82{stroke:	#ffc275;fill:	#ffc275;}.style83{stroke:	#fdb66f;fill:	#fdb66f;}.style84{stroke:	#faa867;fill:	#faa867;}.style85{stroke:	#feb35f;fill:	#feb35f;}.style86{stroke:	#fca54f;fill:	#fca54f;}.style87{stroke:	#ffb043;fill:	#ffb043;}.style88{stroke:	#fea036;fill:	#fea036;}.style89{stroke:	#ffa434;fill:	#ffa434;}.style9{stroke:	#ffeab8;fill:	#ffeab8;}.style90{stroke:	#fc8a2a;fill:	#fc8a2a;}.style91{stroke:	#fd8c25;fill:	#fd8c25;}.style92{stroke:	#f67a1e;fill:	#f67a1e;}.style93{stroke:	#f58920;fill:	#f58920;}.style94{stroke:	#ee7e1b;fill:	#ee7e1b;}.style95{stroke:	#eb6d15;fill:	#eb6d15;}.style96{stroke:	#e05f13;fill:	#e05f13;}.style97{stroke:	#d36515;fill:	#d36515;}.style98{stroke:	#c05314;fill:	#c05314;}.style99{stroke:	#ba6519;fill:	#ba6519;}</style><g><path d="M-66 -35L-147 334L-76 149Z" class="style0"/><path d="M-66 -35L-76 149L40 62Z" class="style1"/><path d="M-66 -35L40 62L82 -52Z" class="style2"/><path d="M-66 -35L82 -52L234 -88Z" class="style3"/><path d="M82 -52L40 62L219 123Z" class="style4"/><path d="M82 -52L219 123L234 -88Z" class="style5"/><path d="M234 -88L219 123L386 80Z" class="style6"/><path d="M234 -88L386 80L404 -27Z" class="style7"/><path d="M234 -88L404 -27L545 -108Z" class="style8"/><path d="M234 -88L545 -108L711 -146Z" class="style9"/><path d="M404 -27L386 80L518 33Z" class="style10"/><path d="M404 -27L518 33L545 -108Z" class="style11"/><path d="M545 -108L518 33L746 84Z" class="style12"/><path d="M545 -108L746 84L711 -146Z" class="style13"/><path d="M711 -146L746 84L837 -41Z" class="style14"/><path d="M711 -146L837 -41L997 -87Z" class="style15"/><path d="M711 -146L997 -87L1244 -110Z" class="style16"/><path d="M711 -146L1244 -110L1543 -99Z" class="style17"/><path d="M837 -41L746 84L866 51Z" class="style18"/><path d="M837 -41L866 51L997 -87Z" class="style19"/><path d="M997 -87L866 51L1005 54Z" class="style20"/><path d="M997 -87L1005 54L1167 15Z" class="style21"/><path d="M997 -87L1167 15L1244 -110Z" class="style22"/><path d="M1244 -110L1167 15L1294 -26Z" class="style23"/><path d="M1244 -110L1294 -26L1543 -99Z" class="style24"/><path d="M1294 -26L1167 15L1354 133Z" class="style25"/><path d="M1294 -26L1354 133L1529 98Z" class="style26"/><path d="M1294 -26L1529 98L1543 -99Z" class="style27"/><path d="M1543 -99L1529 98L1733 -29Z" class="style28"/><path d="M1733 -29L1529 98L1683 109Z" class="style29"/><path d="M1733 -29L1683 109L1716 172Z" class="style30"/><path d="M1733 -29L1716 172L1713 347Z" class="style31"/><path d="M1733 -29L1713 347L1710 741Z" class="style32"/><path d="M-76 149L-147 334L-95 305Z" class="style33"/><path d="M-76 149L-95 305L69 216Z" class="style34"/><path d="M-76 149L69 216L40 62Z" class="style35"/><path d="M40 62L69 216L219 123Z" class="style36"/><path d="M219 123L69 216L220 282Z" class="style37"/><path d="M219 123L220 282L400 230Z" class="style38"/><path d="M219 123L400 230L386 80Z" class="style39"/><path d="M386 80L400 230L518 33Z" class="style40"/><path d="M518 33L400 230L509 297Z" class="style41"/><path d="M518 33L509 297L745 232Z" class="style42"/><path d="M518 33L745 232L746 84Z" class="style43"/><path d="M746 84L745 232L866 51Z" class="style44"/><path d="M866 51L745 232L844 293Z" class="style45"/><path d="M866 51L844 293L979 192Z" class="style46"/><path d="M866 51L979 192L1005 54Z" class="style47"/><path d="M1005 54L979 192L1181 244Z" class="style48"/><path d="M1005 54L1181 244L1167 15Z" class="style49"/><path d="M1167 15L1181 244L1354 133Z" class="style50"/><path d="M1354 133L1181 244L1344 209Z" class="style51"/><path d="M1354 133L1344 209L1529 98Z" class="style52"/><path d="M1529 98L1344 209L1553 251Z" class="style53"/><path d="M1529 98L1553 251L1683 109Z" class="style54"/><path d="M1683 109L1553 251L1716 172Z" class="style55"/><path d="M-95 305L-147 334L-22 495Z" class="style56"/><path d="M-95 305L-22 495L98 448Z" class="style57"/><path d="M-95 305L98 448L69 216Z" class="style58"/><path d="M69 216L98 448L220 282Z" class="style59"/><path d="M220 282L98 448L259 467Z" class="style60"/><path d="M220 282L259 467L400 230Z" class="style61"/><path d="M400 230L259 467L470 405Z" class="style62"/><path d="M400 230L470 405L509 297Z" class="style63"/><path d="M509 297L470 405L608 403Z" class="style64"/><path d="M509 297L608 403L745 232Z" class="style65"/><path d="M745 232L608 403L729 447Z" class="style66"/><path d="M745 232L729 447L844 293Z" class="style67"/><path d="M844 293L729 447L918 384Z" class="style68"/><path d="M844 293L918 384L979 192Z" class="style69"/><path d="M979 192L918 384L1018 362Z" class="style70"/><path d="M979 192L1018 362L1181 244Z" class="style71"/><path d="M1181 244L1018 362L1164 433Z" class="style72"/><path d="M1181 244L1164 433L1427 343Z" class="style73"/><path d="M1181 244L1427 343L1344 209Z" class="style74"/><path d="M1344 209L1427 343L1553 251Z" class="style75"/><path d="M1553 251L1427 343L1485 348Z" class="style76"/><path d="M1553 251L1485 348L1713 347Z" class="style77"/><path d="M1553 251L1713 347L1716 172Z" class="style78"/><path d="M-147 334L-12 877L-20 685Z" class="style79"/><path d="M-147 334L-20 685L-22 495Z" class="style80"/><path d="M98 448L-22 495L109 500Z" class="style81"/><path d="M98 448L109 500L259 467Z" class="style82"/><path d="M259 467L109 500L242 604Z" class="style83"/><path d="M259 467L242 604L345 623Z" class="style84"/><path d="M259 467L345 623L470 405Z" class="style85"/><path d="M470 405L345 623L588 558Z" class="style86"/><path d="M470 405L588 558L608 403Z" class="style87"/><path d="M608 403L588 558L698 507Z" class="style88"/><path d="M608 403L698 507L729 447Z" class="style89"/><path d="M729 447L698 507L870 611Z" class="style90"/><path d="M729 447L870 611L918 384Z" class="style91"/><path d="M918 384L870 611L1107 521Z" class="style92"/><path d="M918 384L1107 521L1018 362Z" class="style93"/><path d="M1018 362L1107 521L1164 433Z" class="style94"/><path d="M1164 433L1107 521L1149 511Z" class="style95"/><path d="M1164 433L1149 511L1366 609Z" class="style96"/><path d="M1164 433L1366 609L1427 343Z" class="style97"/><path d="M1427 343L1366 609L1500 556Z" class="style98"/><path d="M1427 343L1500 556L1485 348Z" class="style99"/><path d="M1485 348L1500 556L1659 524Z" class="style100"/><path d="M1485 348L1659 524L1713 347Z" class="style101"/><path d="M1713 347L1659 524L1710 741Z" class="style102"/><path d="M-22 495L-20 685L109 500Z" class="style103"/><path d="M109 500L-20 685L145 681Z" class="style104"/><path d="M109 500L145 681L242 604Z" class="style105"/><path d="M242 604L145 681L196 688Z" class="style106"/><path d="M242 604L196 688L345 623Z" class="style107"/><path d="M345 623L196 688L373 734Z" class="style108"/><path d="M345 623L373 734L612 672Z" class="style109"/><path d="M345 623L612 672L588 558Z" class="style110"/><path d="M588 558L612 672L653 660Z" class="style111"/><path d="M588 558L653 660L698 507Z" class="style112"/><path d="M698 507L653 660L870 611Z" class="style113"/><path d="M870 611L653 660L845 912Z" class="style114"/><path d="M870 611L845 912L945 668Z" class="style115"/><path d="M870 611L945 668L1107 521Z" class="style116"/><path d="M1107 521L945 668L1022 730Z" class="style117"/><path d="M1107 521L1022 730L1153 742Z" class="style118"/><path d="M1107 521L1153 742L1149 511Z" class="style119"/><path d="M1149 511L1153 742L1366 609Z" class="style120"/><path d="M1366 609L1153 742L1418 706Z" class="style121"/><path d="M1366 609L1418 706L1486 681Z" class="style122"/><path d="M1366 609L1486 681L1500 556Z" class="style123"/><path d="M1500 556L1486 681L1659 524Z" class="style124"/><path d="M1659 524L1486 681L1710 741Z" class="style125"/><path d="M-20 685L-12 877L121 832Z" class="style126"/><path d="M-20 685L121 832L145 681Z" class="style127"/><path d="M145 681L121 832L196 688Z" class="style128"/><path d="M196 688L121 832L291 894Z" class="style129"/><path d="M196 688L291 894L373 734Z" class="style130"/><path d="M373 734L291 894L331 882Z" class="style131"/><path d="M373 734L331 882L546 812Z" class="style132"/><path d="M373 734L546 812L612 672Z" class="style133"/><path d="M612 672L546 812L653 660Z" class="style134"/><path d="M653 660L546 812L726 927Z" class="style135"/><path d="M653 660L726 927L845 912Z" class="style136"/><path d="M945 668L845 912L1022 730Z" class="style137"/><path d="M1022 730L845 912L998 928Z" class="style138"/><path d="M1022 730L998 928L1189 886Z" class="style139"/><path d="M1022 730L1189 886L1153 742Z" class="style140"/><path d="M1153 742L1189 886L1418 706Z" class="style141"/><path d="M1418 706L1189 886L1421 866Z" class="style142"/><path d="M1418 706L1421 866L1476 820Z" class="style143"/><path d="M1418 706L1476 820L1486 681Z" class="style144"/><path d="M1486 681L1476 820L1710 741Z" class="style145"/><path d="M1710 741L1476 820L1643 900Z" class="style146"/><path d="M-12 877L726 927L291 894Z" class="style147"/><path d="M-12 877L291 894L121 832Z" class="style148"/><path d="M291 894L726 927L331 882Z" class="style149"/><path d="M331 882L726 927L546 812Z" class="style150"/><path d="M726 927L998 928L845 912Z" class="style151"/><path d="M998 928L1643 900L1189 886Z" class="style152"/><path d="M1189 886L1643 900L1421 866Z" class="style153"/><path d="M1421 866L1643 900L1476 820Z" class="style154"/></g><filter><feTurbulence type="fractalNoise" in="fillPaint" baseFrequency="0.7" numOctaves="10" stitchTiles="stitch" class="style155"/><feComponentTransfer><feFuncR type="linear" slope="2" intercept="-.5"/><feFuncG type="linear" slope="2" intercept="-.5"/><feFuncB type="linear" slope="2" intercept="-.5"/></feComponentTransfer><feColorMatrix type="matrix" values="0.3333 0.3333 0.3333 0 0   0.3333 0.3333 0.3333 0 0   0.3333 0.3333 0.3333 0 0   0 0 0 1 0"/></filter><rect width="100%" height="100%" filter="url(#noise)" class="style156"/></svg>